<svg width="206" height="126" viewBox="0 0 206 126" fill="none" xmlns="http://www.w3.org/2000/svg">
<g opacity="0.1">
<path d="M3.43619 105.472C1.51728 99.4889 10.0342 83.6261 16.6971 77.0535L30.4328 102.157C30.4328 102.157 5.3551 111.456 3.43619 105.472Z" fill="black" fill-opacity="0.06"/>
<path d="M15.7484 77.0535C15.7484 77.0535 -3.67081 103.104 4.85734 106.893C10.5996 109.445 21.4339 95.5257 21.4339 95.5257" stroke="black" stroke-width="5.38385" stroke-linecap="round" stroke-linejoin="round"/>
<path d="M40.8589 19.2592C-4.70608 49.3739 22.292 97.4211 22.292 97.4211C22.292 97.4211 8.55403 97.4211 10.449 109.262C12.344 121.103 34.8991 120.63 51.9504 120.63C68.9328 120.63 77.6039 117.059 80.6253 115.814L80.6618 115.799C80.8812 121.542 109.308 123.274 144.744 122.362C186.761 121.282 187.593 100.214 187.593 100.214C187.593 100.214 193.257 111.059 198.961 107.368C208.347 101.294 197.428 74.789 194.44 66.1764C198.527 55.5135 197.26 21.9509 159.034 8.49112C131.414 -1.2345 69.1298 0.574549 40.8589 19.2592Z" fill="black" fill-opacity="0.06"/>
<path d="M80.6618 115.799C80.8812 121.542 109.308 123.274 144.744 122.362C186.761 121.282 187.593 100.214 187.593 100.214C187.593 100.214 193.257 111.059 198.961 107.368C208.347 101.294 197.428 74.789 194.44 66.1764C198.527 55.5135 197.26 21.9509 159.034 8.49112C131.414 -1.2345 69.1298 0.57455 40.8589 19.2592C-4.70608 49.3739 22.292 97.4211 22.292 97.4211C22.292 97.4211 8.55403 97.4211 10.449 109.262C12.344 121.103 34.8991 120.63 51.9504 120.63C69.0017 120.63 77.6741 117.03 80.6618 115.799ZM80.6618 115.799C80.2544 105.136 82.2922 100.214 102.664 100.214" stroke="black" stroke-width="5.38385" stroke-linecap="round" stroke-linejoin="round"/>
<path d="M86.5986 66.5365C86.5986 66.5365 90.9123 66.6011 95.5317 66.2384C100.151 65.8757 101.496 63.1165 101.496 63.1165" stroke="black" stroke-width="4.86911" stroke-linecap="round" stroke-linejoin="round"/>
<circle cx="58.8074" cy="54.5471" r="12.4627" fill="white" stroke="black" stroke-width="4.86911"/>
<ellipse cx="53.6768" cy="52.8515" rx="8.29305" ry="10.2795" fill="black"/>
<circle cx="122.119" cy="47.0992" r="10.6005" fill="white" stroke="black" stroke-width="4.86911"/>
<ellipse cx="118.4" cy="46.2771" rx="6.19293" ry="8.4895" transform="rotate(15.0268 118.4 46.2771)" fill="black"/>
</g>
</svg>
