<svg width="206" height="126" viewBox="0 0 206 126" fill="none" xmlns="http://www.w3.org/2000/svg">
<path d="M3.43521 105.471C1.51633 99.4877 10.0331 83.6251 16.6959 77.0526L30.4314 102.155C30.4314 102.155 5.35409 111.454 3.43521 105.471Z" fill="#F0DA9C"/>
<path d="M15.7473 77.0526C15.7473 77.0526 -3.67169 103.103 4.85633 106.892C10.5985 109.443 21.4327 95.5245 21.4327 95.5245" stroke="black" stroke-width="5.38377" stroke-linecap="round" stroke-linejoin="round"/>
<path d="M40.8604 19.2589C-4.70391 49.3731 22.2938 97.4197 22.2938 97.4197C22.2938 97.4197 8.55601 97.4197 10.451 109.261C12.3459 121.102 34.9007 120.628 51.9518 120.628C68.9339 120.628 77.6049 117.057 80.6263 115.813L80.6627 115.798C80.8822 121.54 109.309 123.272 144.744 122.361C186.761 121.28 187.593 100.213 187.593 100.213C187.593 100.213 193.256 111.057 198.96 107.366C208.346 101.292 197.428 74.7879 194.44 66.1754C198.526 55.5126 197.259 21.9505 159.034 8.49099C131.414 -1.23449 69.1309 0.574535 40.8604 19.2589Z" fill="#F0DA9C"/>
<path d="M80.6627 115.798C80.8822 121.54 109.309 123.272 144.744 122.361C186.761 121.28 187.593 100.213 187.593 100.213C187.593 100.213 193.256 111.057 198.96 107.366C208.346 101.292 197.428 74.7879 194.44 66.1754C198.526 55.5126 197.259 21.9505 159.034 8.49099C131.414 -1.23449 69.1309 0.574535 40.8604 19.2589C-4.70391 49.3731 22.2938 97.4197 22.2938 97.4197C22.2938 97.4197 8.55601 97.4197 10.451 109.261C12.3459 121.102 34.9007 120.628 51.9518 120.628C69.0028 120.628 77.6751 117.028 80.6627 115.798ZM80.6627 115.798C80.2553 105.134 82.2931 100.213 102.665 100.213" stroke="black" stroke-width="5.38377" stroke-linecap="round" stroke-linejoin="round"/>
<path d="M86.5957 66.5355C86.5957 66.5355 90.9093 66.6001 95.5286 66.2374C100.148 65.8748 101.493 63.1156 101.493 63.1156" stroke="black" stroke-width="4.86904" stroke-linecap="round" stroke-linejoin="round"/>
<circle cx="58.8033" cy="54.5466" r="12.4625" fill="white" stroke="black" stroke-width="4.86904"/>
<ellipse cx="53.6738" cy="52.8505" rx="8.29293" ry="10.2793" fill="black"/>
<circle cx="122.116" cy="47.0985" r="10.6004" fill="white" stroke="black" stroke-width="4.86904"/>
<ellipse cx="118.393" cy="46.2766" rx="6.19284" ry="8.48938" transform="rotate(15.0268 118.393 46.2766)" fill="black"/>
</svg>
